<?xml version="1.0" encoding="utf-8"?>
<!-- Generator: Adobe Illustrator 15.1.0, SVG Export Plug-In . SVG Version: 6.00 Build 0)  -->
<svg version="1.2" baseProfile="tiny" id="Layer_1" xmlns="http://www.w3.org/2000/svg" xmlns:xlink="http://www.w3.org/1999/xlink"
	 x="0px" y="0px" width="204.5px" height="186px" viewBox="0 0 204.5 186" overflow="inherit" xml:space="preserve">
<g>
	<path fill="#FFFFFF" d="M2.935,3.11v179.675h179.42V3.11H2.935z M46.449,144.584c3.362,0,6.221-0.246,8.275-0.787v-14.939H43.875
		v-8.418h20.563v30.012c-3.633,1.242-9.196,2.707-18.07,2.707c-18.212,0-30.403-11.768-30.403-30.082
		c0-17.773,12.94-29.598,30.485-29.598c8.332,0,12.044,1.234,17.308,3.051l-0.79,9.951c-4.847-3.16-8.97-4.426-16.116-4.426
		c-12.544,0-20.919,9.072-20.861,21.262C26.051,136.43,35.167,144.584,46.449,144.584z M94.487,116.496
		c8.372,4.178,16.947,7.607,16.947,19.158c0,12.607-9.901,17.871-21.325,17.504c-4.056-0.127-8.004-1.154-12.306-2.559l0.975-9.076
		c3.641,1.498,8.359,3.123,12.312,3.061c5.161-0.08,10.319-2.475,10.319-8.449c0-4.6-3.685-6.863-7.249-8.67
		c-7.879-3.992-16.942-6.77-16.942-17.932c0-10.554,8.396-16.055,18.807-16.055c3.782,0,8.3,0.655,12.833,2.26l-1.361,8.937
		c-4.937-1.935-7.093-2.62-11.15-2.62c-4.489,0-9.104,1.574-9.104,6.754C87.243,112.854,91.396,114.955,94.487,116.496z
		 M136.64,129.812l-5.071,11.586l12.184-6.385l7.015,5.4l-23.991,11.736h-9.879l12.878-28.77L136.64,129.812z M129.932,123.021
		l13.839-30.809l13.835,30.809h-9.641l-4.194-10.24l-4.201,10.24H129.932z M160.521,152.146l-9.625-22.338l6.865-6.432l12.875,28.77
		H160.521z"/>
	<g>
		<path fill="#FFFFFF" d="M196.305,10.453c1.189-0.089,2.005-0.905,2.005-2.041c0-0.657-0.479-1.349-1.101-1.615
			c-0.496-0.194-0.834-0.231-1.916-0.231h-2.414v7.029h1.136v-2.982h0.675c0.869,0,1.189,0.302,2.094,1.881l0.621,1.102h1.385
			l-0.853-1.367C197.227,11.091,196.836,10.665,196.305,10.453z M195.399,9.635h-1.385V7.524h1.296c1.314,0,1.793,0.266,1.793,1.047
			C197.104,9.317,196.57,9.635,195.399,9.635z"/>
		<path fill="#FFFFFF" d="M195.754,3.442c-3.62,0-6.549,2.929-6.549,6.531c0,3.621,2.929,6.549,6.549,6.549
			c3.604,0,6.531-2.928,6.531-6.549C202.285,6.371,199.357,3.442,195.754,3.442z M195.754,15.44c-3.016,0-5.467-2.449-5.467-5.467
			c0-3,2.451-5.449,5.467-5.449c3,0,5.448,2.449,5.448,5.449C201.202,12.991,198.754,15.44,195.754,15.44z"/>
	</g>
</g>
</svg>
