<?xml version="1.0" encoding="utf-8"?>
<!-- Generator: Adobe Illustrator 15.1.0, SVG Export Plug-In . SVG Version: 6.00 Build 0)  -->
<svg version="1.2" baseProfile="tiny"
	 id="svg2" xmlns:svg="http://www.w3.org/2000/svg" xmlns:rdf="http://www.w3.org/1999/02/22-rdf-syntax-ns#" xmlns:cc="http://creativecommons.org/ns#" xmlns:dc="http://purl.org/dc/elements/1.1/"
	 xmlns="http://www.w3.org/2000/svg" xmlns:xlink="http://www.w3.org/1999/xlink" x="0px" y="0px" width="493px" height="71px"
	 viewBox="-6.475 63.65 493 71" overflow="inherit" xml:space="preserve">
<g id="g10" transform="matrix(1.25,0,0,-1.25,0,130.3)">
	<g id="g12" transform="scale(0.1,0.1)">
		<path id="path48" fill="#FFFFFF" d="M33.09,171.138v138.062H0v17.062h33.09v110.125h20.176V326.263h61.012v-17.062H53.266V171.662
			c0-31.023,10.855-42.398,28.438-42.398c18.609,0,25.852,7.234,33.598,15.508l12.93-12.414
			c-10.336-11.891-22.75-21.188-46.527-21.188C54.809,111.169,33.09,128.224,33.09,171.138"/>
		<path id="path50" fill="#FFFFFF" d="M186.68,326.263h20.16l-0.52-42.406c11.898,30.5,34.648,46.531,61.535,46.531
			c16.543,0,27.918-3.094,38.258-10.852l-9.82-16.555c-6.207,4.656-15.508,8.797-31.016,8.797
			c-29.996,0-58.438-25.344-58.438-76.531V115.294h-20.16V326.263"/>
		<path id="path52" fill="#FFFFFF" d="M534.684,220.263c0,52.219-35.164,92.547-87.379,92.547c-52.23,0-85.32-39.289-85.32-91.516
			c0-52.234,33.09-92.031,85.32-92.031C499.52,129.263,534.684,168.56,534.684,220.263L534.684,220.263z M340.789,221.294
			c0,62.047,43.949,109.617,103.406,109.617c42.91,0,74.461-23.789,89.973-56.883l-0.52,52.234h20.16V115.294h-20.16l0.52,52.227
			c-15.512-32.055-48.602-56.352-89.973-56.352C384.738,111.169,340.789,159.248,340.789,221.294"/>
		<path id="path54" fill="#FFFFFF" d="M641.227,326.263h20.176l-0.52-47.055c13.953,32.055,43.43,51.703,80.656,51.703
			c47.059,0,78.594-31.539,78.594-83.766V115.294h-20.16v128.234c0,43.438-20.172,68.766-61.012,68.766
			c-45.504,0-77.559-29.984-77.559-79.109V115.294h-20.176V326.263"/>
		<path id="path56" fill="#FFFFFF" d="M885.32,163.904l17.582,7.758c11.375-24.82,31.535-42.398,67.203-42.398
			c32.074,0,52.746,16.023,52.746,40.328c0,28.953-20.16,36.188-58.418,48.086c-35.684,10.336-65.16,22.75-65.16,60.492
			c0,31.031,27.922,52.742,63.086,52.742c32.574,0,53.77-15.516,67.219-39.82l-15.508-9.297
			c-10.352,18.094-27.418,31.531-51.711,31.531c-26.883,0-43.949-13.953-43.949-34.117c0-24.305,12.93-32.062,54.289-44.477
			c38.262-11.375,70.312-25.328,70.312-64.625c0-33.609-25.84-58.938-72.906-58.938C925.652,111.169,897.215,135.466,885.32,163.904
			"/>
		<path id="path58" fill="#FFFFFF" d="M1114.391,326.263h20.18V115.294h-20.18V326.263z M1107.16,417.255
			c0,9.828,8.27,17.055,17.07,17.055c8.781,0,17.051-7.227,17.051-17.055c0-10.336-8.27-17.055-17.051-17.055
			C1115.43,400.201,1107.16,406.919,1107.16,417.255"/>
		<path id="path60" fill="#FFFFFF" d="M1229.711,171.138v138.062h-33.09v17.062h33.09v110.125h20.168V326.263h61.02v-17.062h-61.02
			V171.662c0-31.023,10.859-42.398,28.441-42.398c18.609,0,25.852,7.234,33.602,15.508l12.93-12.414
			c-10.34-11.891-22.75-21.188-46.531-21.188C1251.422,111.169,1229.711,128.224,1229.711,171.138"/>
		<path id="path62" fill="#FFFFFF" d="M1383.82,326.263h20.16V115.294h-20.16V326.263z M1376.57,417.255
			c0,9.828,8.281,17.055,17.07,17.055c8.781,0,17.059-7.227,17.059-17.055c0-10.336-8.277-17.055-17.059-17.055
			C1384.851,400.201,1376.57,406.919,1376.57,417.255"/>
		<path id="path64" fill="#FFFFFF" d="M1672.871,221.294c0,52.227-35.691,91.516-88.43,91.516
			c-52.742,0-89.441-39.289-89.441-91.516c0-52.234,36.699-92.031,89.441-92.031C1637.18,129.263,1672.871,169.06,1672.871,221.294z
			 M1474.308,221.294c0,60.5,48.613,109.617,110.133,109.617c61.539,0,109.109-49.117,109.109-109.617
			c0-60.492-47.57-110.125-109.109-110.125C1522.922,111.169,1474.308,160.802,1474.308,221.294"/>
		<path id="path66" fill="#FFFFFF" d="M1763.898,326.263h20.16l-0.5-47.055c13.953,32.055,43.434,51.703,80.652,51.703
			c47.051,0,78.598-31.539,78.598-83.766V115.294h-20.18v128.234c0,43.438-20.16,68.766-61.008,68.766
			c-45.492,0-77.562-29.984-77.562-79.109V115.294h-20.16V326.263"/>
		<path id="path68" fill="#FFFFFF" d="M2007.988,140.123c0,16.023,13.445,27.922,27.922,27.922
			c14.992,0,27.914-11.898,27.914-27.922c0-16.031-12.922-28.445-27.914-28.445C2021.433,111.677,2007.988,124.091,2007.988,140.123
			"/>
		<path id="path70" fill="#FFFFFF" d="M2073.137,183.576l45.016,24.828c16.547-27.422,37.758-49.141,80.672-49.141
			c35.703,0,61.047,19.141,61.047,48.109c0,30.516-20.688,43.969-58.961,61.039l-23.273,10.344
			c-51.219,22.758-82.25,48.617-82.25,102.93c0,52.25,40.344,89.484,98.797,89.484c46.547,0,78.094-17.578,99.305-55.344
			l-42.914-26.375c-13.453,23.273-28.969,34.141-56.391,34.141c-27.938,0-45.523-17.078-45.523-40.875
			c0-26.375,15.008-38.266,50.695-53.797l22.766-10.336c60-26.383,92.07-54.312,92.07-110.695c0-61.547-48.117-97.25-114.32-97.25
			C2133.137,110.638,2092.793,143.748,2073.137,183.576"/>
		<path id="path72" fill="#FFFFFF" d="M2533.527,210.998l-43.969,109.656c-8.797,20.688-17.578,52.234-17.578,52.234
			s-8.281-31.547-17.078-52.234l-43.961-109.656H2533.527z M2469.902,470.654h6.203l154.156-355.359h-56.906l-20.172,49.656
			h-160.859l-20.188-49.656h-52.758L2469.902,470.654"/>
		<path id="path74" fill="#FFFFFF" d="M2690.277,471.169h6.203l121.547-187.766c10.359-14.992,21.219-36.203,21.219-36.203
			s11.359,21.211,21.203,36.203l120.516,187.766h6.219l33.609-355.875h-54.312l-17.062,173.289
			c-1.547,21.203-3.109,56.898-3.109,56.898s-14.484-30.516-26.906-49.141l-79.125-126.734h-5.172l-78.625,126.219
			c-12.406,18.625-28.453,49.141-28.453,49.141s-1.031-35.18-2.594-56.383l-17.578-173.289h-51.203L2690.277,471.169"/>
		<path id="path76" fill="#FFFFFF" d="M3053.933,140.123c0,16.023,13.438,27.922,27.922,27.922
			c14.984,0,27.906-11.898,27.906-27.922c0-16.031-12.922-28.445-27.906-28.445C3067.371,111.677,3053.933,124.091,3053.933,140.123
			"/>
		<path id="path78" fill="#FFFFFF" d="M3330.558,221.294c0,52.227-35.172,91.516-88.422,91.516
			c-52.234,0-85.844-39.289-85.844-91.516c0-52.234,33.609-92.031,85.844-92.031C3295.386,129.263,3330.558,169.06,3330.558,221.294
			z M3142.355,61.529l16.531,9.305c19.141-34.641,47.047-52.742,87.391-52.742c52.734,0,82.719,25.859,82.719,89.453v58.938
			c-14.984-31.016-48.594-55.312-89.453-55.312c-60.5,0-104.438,48.078-104.438,110.125s43.938,109.617,104.438,109.617
			c42.922,0,74.469-23.789,90.5-56.359l-1.047,51.711h20.156V105.482c0-71.875-39.297-105.484-102.359-105.484
			C3196.121-0.002,3160.449,26.357,3142.355,61.529"/>
		<path id="path80" fill="#FFFFFF" d="M3592.73,221.294c0,52.227-35.656,91.516-88.406,91.516
			c-52.734,0-89.453-39.289-89.453-91.516c0-52.234,36.719-92.031,89.453-92.031C3557.074,129.263,3592.73,169.06,3592.73,221.294z
			 M3394.183,221.294c0,60.5,48.609,109.617,110.141,109.617s109.078-49.117,109.078-109.617
			c0-60.492-47.547-110.125-109.078-110.125S3394.183,160.802,3394.183,221.294"/>
		<path id="path82" fill="#FFFFFF" d="M3625.871,326.263h21.703l69.812-158.219c4.656-10.344,9.297-26.891,9.297-26.891
			s4.141,16.547,8.797,26.891l68.266,158.219h20.656l-95.125-215.094h-6.203L3625.871,326.263"/>
	</g>
</g>
</svg>
