<svg xmlns="http://www.w3.org/2000/svg" xmlns:xlink="http://www.w3.org/1999/xlink" viewBox="0 0 16.68 25.6"><defs><style>.cls-1,.cls-2{fill:none;}.cls-2{clip-rule:evenodd;}.cls-3{clip-path:url(#clip-path);}.cls-4{isolation:isolate;}.cls-5{clip-path:url(#clip-path-2);}.cls-6{clip-path:url(#clip-path-3);}.cls-7{fill:#231f20;}.cls-8{clip-path:url(#clip-path-5);}.cls-9{clip-path:url(#clip-path-6);}.cls-10{clip-path:url(#clip-path-7);}</style><clipPath id="clip-path"><rect class="cls-1" x="5" y="5" width="6.68" height="3.9"/></clipPath><clipPath id="clip-path-2"><rect class="cls-1" x="4.68" y="4.22" width="7" height="5"/></clipPath><clipPath id="clip-path-3"><path class="cls-2" d="M11.13,8.9A.22.22,0,0,1,11,8.83L8.34,6.2,5.71,8.83a.22.22,0,0,1-.15.07.21.21,0,0,1-.16-.07l-.34-.34A.22.22,0,0,1,5,8.34a.22.22,0,0,1,.07-.15L8.19,5.07A.21.21,0,0,1,8.34,5a.21.21,0,0,1,.15.07l3.12,3.12a.22.22,0,0,1,.07.15.22.22,0,0,1-.07.16l-.34.34a.21.21,0,0,1-.15.07"/></clipPath><clipPath id="clip-path-5"><rect class="cls-1" x="5" y="16.7" width="6.68" height="3.9"/></clipPath><clipPath id="clip-path-6"><rect class="cls-1" x="5" y="16.38" width="7" height="5"/></clipPath><clipPath id="clip-path-7"><path class="cls-2" d="M5.56,16.7a.22.22,0,0,1,.15.07L8.34,19.4,11,16.77a.22.22,0,0,1,.15-.07.21.21,0,0,1,.16.07l.34.34a.22.22,0,0,1,.07.16.22.22,0,0,1-.07.15L8.5,20.53a.21.21,0,0,1-.15.07.21.21,0,0,1-.15-.07L5.07,17.41A.22.22,0,0,1,5,17.26a.22.22,0,0,1,.07-.16l.34-.34a.21.21,0,0,1,.15-.07"/></clipPath></defs><title>Sortby_Arrow</title><g id="Layer_2" data-name="Layer 2"><g id="Layer_1-2" data-name="Layer 1"><g class="cls-3"><g class="cls-4"><g class="cls-5"><g class="cls-6"><g class="cls-5"><rect class="cls-7" width="16.68" height="13.9"/></g></g></g></g></g><g class="cls-8"><g class="cls-4"><g class="cls-9"><g class="cls-10"><g class="cls-9"><rect class="cls-7" y="11.7" width="16.68" height="13.9"/></g></g></g></g></g></g></g></svg>